<?xml version="1.0" encoding="iso-8859-1"?>
<!-- Uploaded to: SVG Repo, www.svgrepo.com, Generator: SVG Repo Mixer Tools -->
<svg fill="#000000" version="1.1" id="Layer_1" xmlns="http://www.w3.org/2000/svg" xmlns:xlink="http://www.w3.org/1999/xlink" 
	 viewBox="0 0 512 512" xml:space="preserve">
<g>
	<g>
		<path d="M466.989,329.141V0H45.011v512h421.978V362.9H450.11v132.221h-84.396V16.879h33.758v351.648h16.879V16.879h33.758v312.261
			H466.989z M348.835,438.857H239.121v16.879h109.714v39.385H61.89v-95.648h286.945V438.857z M348.835,101.275h-256v16.879h256
			v264.44H61.89v-70.74l50.637-25.319v20.103c0,8.607,6.57,30.945,36.571,30.945h36.571V233.495h-16.879v87.209h-19.692
			c-8.289,0-14.06-2.296-17.155-6.821c-2.296-3.359-2.521-6.995-2.537-7.336V197.052c2.963-3.608,9.659-11.298,18.799-18.994
			c11.118-9.361,28.106-20.521,45.904-20.521c32.203,0,42.052,37.062,42.45,38.618l1.599,6.393h71.292v19.692
			c0,10.817-4.269,19.241-12.687,25.036c-5.73,3.944-11.676,5.504-13.473,5.909h-58.235v98.462h16.879v-81.582h42.897l0.689-0.115
			c14.115-2.353,40.81-15.352,40.81-47.709V185.67h-75.46c-1.806-4.848-4.904-11.846-9.718-18.847
			c-11.767-17.117-28.034-26.164-47.042-26.164c-43.109,0-78.414,46.411-79.895,48.387l-1.688,2.251v76.367L61.89,292.982V16.879
			h286.945V101.275z"/>
	</g>
</g>
<g>
	<g>
		<rect x="92.835" y="438.857" width="39.385" height="16.879"/>
	</g>
</g>
<g>
	<g>
		<rect x="160.352" y="438.857" width="39.385" height="16.879"/>
	</g>
</g>
<g>
	<g>
		<rect x="92.835" y="50.637" width="225.055" height="16.879"/>
	</g>
</g>
<g>
	<g>
		<rect x="391.033" y="399.473" width="33.758" height="16.879"/>
	</g>
</g>
<g>
	<g>
		<rect x="272.879" y="337.582" width="45.011" height="16.879"/>
	</g>
</g>
</svg>