<?xml version="1.0" encoding="iso-8859-1"?>
<!-- Uploaded to: SVG Repo, www.svgrepo.com, Generator: SVG Repo Mixer Tools -->
<svg fill="#000000" height="800px" width="800px" version="1.1" id="Layer_1" xmlns="http://www.w3.org/2000/svg" xmlns:xlink="http://www.w3.org/1999/xlink" 
	 viewBox="0 0 512 512" xml:space="preserve">
<g>
	<g>
		<g>
			<path d="M289.062,50.385c-5.977,0-10.858,4.689-11.164,10.589c-1.52,2.132-9.702,6.64-23.331,6.64
				c-10.584,0-18.854-2.87-22.358-5.714c-7.033-5.712-17.242-5.711-24.278,0c-3.503,2.844-11.773,5.714-22.357,5.714
				c-10.584,0-18.854-2.87-22.358-5.714c-7.032-5.712-17.242-5.711-24.276,0c-3.504,2.844-11.774,5.715-22.358,5.715
				c-13.629,0-21.81-4.508-23.332-6.64c-0.307-5.902-5.19-10.589-11.164-10.589c-0.002,0-0.006,0-0.008,0
				c-6.171,0.003-11.172,5.007-11.172,11.18c0,0.004,0,0.01,0,0.015l0.154,117.845c0.006,3.836,1.977,7.401,5.222,9.446
				c1.813,1.141,3.882,1.719,5.958,1.719c1.642,0,3.288-0.361,4.817-1.091c59.893-28.596,137.295-28.596,197.188,0
				c3.467,1.653,7.535,1.415,10.782-0.633s5.215-5.618,5.215-9.456V61.565C300.242,55.39,295.236,50.385,289.062,50.385z
				 M93.398,162.449l-0.099-76.072c6.698,2.31,14.602,3.595,23.284,3.595c13.676,0,26.075-3.346,34.496-9.242
				c8.42,5.896,20.819,9.242,34.496,9.242s26.077-3.346,34.496-9.242c8.42,5.897,20.819,9.242,34.496,9.242
				c8.697,0,16.609-1.29,23.315-3.607v76.073C220.198,140.22,151.079,140.221,93.398,162.449z"/>
			<path d="M161.533,385.695c-40.64,0-73.702-33.062-73.702-73.701c0-6.174-5.006-11.18-11.18-11.18s-11.18,5.005-11.18,11.18
				c0,52.968,43.093,96.06,96.061,96.06c6.173,0,11.18-5.005,11.18-11.18C172.712,390.7,167.706,385.695,161.533,385.695z"/>
			<path d="M205.41,371.171c-0.56,0.416-1.126,0.824-1.698,1.225c-5.055,3.544-6.281,10.516-2.737,15.572
				c2.176,3.103,5.641,4.764,9.164,4.764c2.216,0,4.455-0.657,6.407-2.027c0.742-0.521,1.478-1.051,2.205-1.592
				c4.956-3.684,5.986-10.688,2.301-15.642S210.362,367.485,205.41,371.171z"/>
			<path d="M229.921,194.933c-14.287-2.893-29.183-4.36-44.27-4.36c-7.922,0-15.876,0.409-23.644,1.216
				c-6.141,0.638-10.602,6.134-9.963,12.275c0.638,6.141,6.125,10.611,12.275,9.964c7.003-0.728,14.18-1.097,21.332-1.097
				c13.6,0,27.002,1.317,39.833,3.915c0.748,0.151,1.495,0.225,2.23,0.225c5.209,0,9.872-3.66,10.945-8.963
				C239.886,202.058,235.973,196.159,229.921,194.933z"/>
			<path d="M274.63,209.683l-0.585-0.279c-5.573-2.655-12.245-0.292-14.902,5.282c-2.656,5.573-0.292,12.245,5.282,14.902
				l0.537,0.256c1.561,0.747,3.205,1.101,4.826,1.101c4.167,0,8.167-2.34,10.087-6.349
				C282.546,219.03,280.196,212.352,274.63,209.683z"/>
			<path d="M448.764,261.64v-27.451h19.564c6.173,0,11.18-5.005,11.18-11.18c0-6.174-5.006-11.18-11.18-11.18h-19.564V156.49
				c0-6.174-5.006-11.18-11.18-11.18h-9.224c-24.503,0-44.438,19.935-44.438,44.439c0,23.848,18.883,43.369,42.482,44.396v27.494
				c-24.241,5.158-42.482,26.726-42.482,52.482s18.242,47.324,42.482,52.482v93.732c0,16.159-13.146,29.305-29.305,29.305h-41.364
				c-16.159,0-29.305-13.146-29.305-29.305v-9.39c13.999-4.688,24.119-17.917,24.119-33.474V134.69h33.539
				c6.173,0,11.18-5.005,11.18-11.18V67.613c0-6.174-5.006-11.18-11.18-11.18h-33.541C350.496,25.308,325.159,0,294.022,0H77.281
				C46.113,0,20.753,25.359,20.753,56.528v255.465c0,77.625,63.153,140.779,140.78,140.779c49.631,0,93.345-25.816,118.421-64.723
				v29.423c0,15.556,10.12,28.786,24.119,33.474v9.39c0,28.488,23.176,51.664,51.664,51.664H397.1
				c28.487,0,51.664-23.176,51.664-51.664v-93.732c24.241-5.158,42.482-26.726,42.482-52.482
				C491.247,288.367,473.005,266.798,448.764,261.64z M350.55,78.792h22.359v33.539H350.55V78.792z M315.252,430.413
				c-7.135,0-12.939-5.804-12.939-12.94v-105.48c0-6.173-5.006-11.178-11.18-11.178s-11.18,5.005-11.18,11.18
				c0,65.296-53.124,118.419-118.421,118.419S43.112,377.29,43.112,311.993V56.528c0-18.841,15.328-34.169,34.169-34.169h216.74
				c18.842,0,34.169,15.328,34.169,34.169v360.944C328.191,424.607,322.386,430.413,315.252,430.413z M406.282,189.749
				c0-11.516,8.862-21.001,20.123-21.994v43.988C415.143,210.75,406.282,201.266,406.282,189.749z M437.585,345.425
				c-17.26,0-31.303-14.043-31.303-31.303c0-13.323,8.369-24.72,20.123-29.231v14.698c0,6.174,5.006,11.18,11.18,11.18
				c6.173,0,11.18-5.005,11.18-11.18v-14.698c11.754,4.511,20.123,15.909,20.123,29.231
				C468.888,331.383,454.845,345.425,437.585,345.425z"/>
		</g>
	</g>
</g>
</svg>